<?xml version="1.0" encoding="UTF-8" standalone="no"?>
<!-- Created with Inkscape (http://www.inkscape.org/) -->

<svg
   width="63.351013mm"
   height="63.209084mm"
   viewBox="0 0 63.351014 63.209085"
   version="1.1"
   id="svg1"
   inkscape:export-filename="startcloud-00.png"
   inkscape:export-xdpi="403.60751"
   inkscape:export-ydpi="403.60751"
   sodipodi:docname="startcloud.svg"
   inkscape:version="1.4 (86a8ad7, 2024-10-11)"
   inkscape:export-batch-path="G:\Pictures"
   inkscape:export-batch-name="startcloud"
   xmlns:inkscape="http://www.inkscape.org/namespaces/inkscape"
   xmlns:sodipodi="http://sodipodi.sourceforge.net/DTD/sodipodi-0.dtd"
   xmlns="http://www.w3.org/2000/svg"
   xmlns:svg="http://www.w3.org/2000/svg">
  <sodipodi:namedview
     id="namedview1"
     pagecolor="#505050"
     bordercolor="#ffffff"
     borderopacity="1"
     inkscape:showpageshadow="0"
     inkscape:pageopacity="0"
     inkscape:pagecheckerboard="1"
     inkscape:deskcolor="#505050"
     inkscape:document-units="mm"
     inkscape:zoom="2.8284271"
     inkscape:cx="25.279067"
     inkscape:cy="6.5407377"
     inkscape:window-width="1920"
     inkscape:window-height="1017"
     inkscape:window-x="1912"
     inkscape:window-y="-8"
     inkscape:window-maximized="1"
     inkscape:current-layer="startcloud_layer_13">
    <inkscape:page
       x="0"
       y="2.351899e-14"
       width="63.351013"
       height="63.209087"
       id="page2"
       margin="0"
       bleed="0" />
  </sodipodi:namedview>
  <defs
     id="defs1" />
  <g
     inkscape:groupmode="layer"
     id="startcloud_layer_0"
     inkscape:label="startcloud_layer_0"
     style="display:none"
     transform="translate(24.198138,24.089846)">
    <path
       id="ring-3"
       style="display:inline;fill:none;stroke-width:4.20907"
       inkscape:label="ring"
       d="m 4.999512,-24.089846 c -17.294928,1.758111 -29.19765,15.3331645 -29.19765,31.6034537 0,4.1303093 0.806311,8.0740443 2.257337,11.6936913 0.05946,0.15701 0.124795,0.311956 0.186844,0.468182 0.02306,0.05495 0.04399,0.110699 0.06735,0.16548 1.209493,2.994975 2.888501,5.837891 5.053482,8.405524 l 0.126009,-0.128482 c 5.814686,6.728647 14.4081512,11.001215 23.981224,11.001215 9.572324,0 18.205466,-4.27663 24.05292,-11.009925 l 0.141221,0.141545 c 10.989037,-13.5006 9.829459,-31.5353401 -1.649007,-43.040171 -6.82926,-6.844948 -16.053953,-9.866026 -25.019731,-9.084931 z m 2.6962042,5.901286 c 6.5884158,-0.01517 13.1680978,2.497636 18.1955718,7.53666 5.661484,5.6744836 8.148957,13.3806702 7.365138,20.867904 h -0.05865 C 31.872821,23.217695 20.888493,33.274573 7.4741229,33.274573 c -9.3762787,0 -17.5518809,-4.94035 -22.0780209,-12.353504 -5.889998,-9.900352 -4.518824,-22.8889257 4.051897,-31.479332 5.0605917,-5.072215 11.6593013,-7.615113 18.2477172,-7.630297 z" />
    <path
       style="display:inline;fill:#ffffff;stroke:none;stroke-width:5.96805;stroke-dasharray:none;stroke-opacity:1"
       d="m 21.009289,5.2661349 c 0,0 3.404118,-0.05937 4.543356,2.5724479 0.412941,0.953923 -0.509555,3.0683602 -0.509555,3.0683602 0,0 2.408202,1.279152 2.911745,2.426145 0.537904,1.225269 0.367199,2.791919 -0.218369,3.996005 -0.436203,0.896897 -2.256618,1.998003 -2.256618,1.998003 h -36.396793 c 0,0 -2.353841,-2.20451 -2.858755,-3.672363 -0.665213,-1.933866 -0.732048,-4.223888 -0.0088,-6.1367203 0.482139,-1.2752008 1.491029,-2.452953 2.709508,-3.0597011 1.006338,-0.5011101 3.3609946,-0.2609419 3.3609946,-0.2609419 0,0 -0.7262924,-2.7520281 -0.1455931,-3.924646 0.5140914,-1.0381172 2.8389528,-1.9980037 2.8389528,-1.9980037 0,0 2.1126015,-0.26497883 2.9117409,0.14270813 0.7991394,0.40768696 1.52866493,1.92664497 1.52866493,1.92664497 0,0 0.79261445,-3.5105359 1.89263517,-4.8522903 0.4202567,-0.5126031 1.0348969,-0.8985075 1.6742497,-1.0703586 1.5717458,-0.4224677 3.4182882,-0.5084937 4.8771697,0.2140706 0.9153697,0.4533704 1.9654267,2.3547883 1.9654267,2.3547883 0,0 4.5865626,-1.4741717 6.7399856,-0.7813647 1.657745,0.5333364 3.412313,2.09377182 3.869979,3.5158593 0.366232,1.1379817 0.570104,3.5413572 0.570104,3.5413572 z"
       id="cloud-8"
       sodipodi:nodetypes="cscssccaaacacccasacasc"
       inkscape:label="cloud" />
  </g>
  <g
     inkscape:groupmode="layer"
     id="startcloud_layer_01"
     inkscape:label="startcloud_layer_01"
     style="display:none"
     transform="translate(24.198138,24.089846)">
    <path
       id="ring-3-1"
       style="display:inline;fill:#91c54e;fill-opacity:1;stroke:none;stroke-width:4.20907"
       inkscape:label="ring"
       d="m 4.999512,-24.089846 c -17.294928,1.758111 -29.19765,15.3331645 -29.19765,31.6034537 0,4.1303093 0.806311,8.0740443 2.257337,11.6936913 0.05946,0.15701 0.124795,0.311956 0.186845,0.468182 0.02304,0.05495 0.04399,0.110699 0.06735,0.16548 1.209494,2.994975 2.888501,5.837891 5.053482,8.405524 l 0.12601,-0.128482 c 5.814686,6.728647 14.4081507,11.001215 23.9812235,11.001215 9.5723245,0 18.2054675,-4.27663 24.0529225,-11.009925 l 0.14122,0.141545 c 10.989033,-13.5006 9.829455,-31.5353401 -1.649011,-43.040171 -6.82926,-6.844948 -16.053953,-10.081608 -25.019731,-9.300513 z m 2.6962042,5.901286 c 6.5884158,-0.01517 13.1680978,2.497636 18.1955718,7.53666 5.661484,5.6744836 8.148957,13.3806702 7.365138,20.867904 h -0.05865 C 31.872821,23.217695 20.888493,33.274573 7.4741229,33.274573 c -9.3762787,0 -17.5518809,-4.94035 -22.0780209,-12.353504 -5.889998,-9.900352 -4.518824,-22.8889257 4.051897,-31.479332 5.0605917,-5.072215 11.6593013,-7.615113 18.2477172,-7.630297 z"
       sodipodi:nodetypes="cscccccsccscccsccscsc" />
    <path
       style="display:inline;fill:#ffffff;stroke:none;stroke-width:5.96805;stroke-dasharray:none;stroke-opacity:1"
       d="m 21.009289,5.2661349 c 0,0 3.404118,-0.05937 4.543356,2.5724479 0.412941,0.953923 -0.509555,3.0683602 -0.509555,3.0683602 0,0 2.408202,1.279152 2.911745,2.426145 0.537904,1.225269 0.367199,2.791919 -0.218369,3.996005 -0.436203,0.896897 -2.256618,1.998003 -2.256618,1.998003 h -36.396793 c 0,0 -2.353841,-2.20451 -2.858755,-3.672363 -0.665213,-1.933866 -0.732048,-4.223888 -0.0088,-6.1367203 0.482139,-1.2752008 1.491029,-2.452953 2.709508,-3.0597011 1.006338,-0.5011101 3.3609946,-0.2609419 3.3609946,-0.2609419 0,0 -0.7262924,-2.7520281 -0.1455931,-3.924646 0.5140914,-1.0381172 2.8389528,-1.9980037 2.8389528,-1.9980037 0,0 2.1126015,-0.26497883 2.9117409,0.14270813 0.7991394,0.40768696 1.52866493,1.92664497 1.52866493,1.92664497 0,0 0.79261445,-3.5105359 1.89263517,-4.8522903 0.4202567,-0.5126031 1.0348969,-0.8985075 1.6742497,-1.0703586 1.5717458,-0.4224677 3.4182882,-0.5084937 4.8771697,0.2140706 0.9153697,0.4533704 1.9654267,2.3547883 1.9654267,2.3547883 0,0 4.5865626,-1.4741717 6.7399856,-0.7813647 1.657745,0.5333364 3.412313,2.09377182 3.869979,3.5158593 0.366232,1.1379817 0.570104,3.5413572 0.570104,3.5413572 z"
       id="cloud-8-3"
       sodipodi:nodetypes="cscssccaaacacccasacasc"
       inkscape:label="cloud" />
  </g>
  <g
     inkscape:groupmode="layer"
     id="startcloud_layer_02"
     inkscape:label="startcloud_layer_02"
     style="display:none"
     transform="translate(24.198138,24.089846)">
    <path
       style="display:inline;fill:#ffffff;stroke:none;stroke-width:5.96805;stroke-dasharray:none;stroke-opacity:1"
       d="m 21.009289,5.2661349 c 0,0 3.404118,-0.05937 4.543356,2.5724479 0.412941,0.953923 -0.509555,3.0683602 -0.509555,3.0683602 0,0 2.408202,1.279152 2.911745,2.426145 0.537904,1.225269 0.367199,2.791919 -0.218369,3.996005 -0.436203,0.896897 -2.256618,1.998003 -2.256618,1.998003 h -36.396793 c 0,0 -2.353841,-2.20451 -2.858755,-3.672363 -0.665213,-1.933866 -0.732048,-4.223888 -0.0088,-6.1367203 0.482139,-1.2752008 1.491029,-2.452953 2.709508,-3.0597011 1.006338,-0.5011101 3.3609946,-0.2609419 3.3609946,-0.2609419 0,0 -0.7262924,-2.7520281 -0.1455931,-3.924646 0.5140914,-1.0381172 2.8389528,-1.9980037 2.8389528,-1.9980037 0,0 2.1126015,-0.26497883 2.9117409,0.14270813 0.7991394,0.40768696 1.52866493,1.92664497 1.52866493,1.92664497 0,0 0.79261445,-3.5105359 1.89263517,-4.8522903 0.4202567,-0.5126031 1.0348969,-0.8985075 1.6742497,-1.0703586 1.5717458,-0.4224677 3.4182882,-0.5084937 4.8771697,0.2140706 0.9153697,0.4533704 1.9654267,2.3547883 1.9654267,2.3547883 0,0 4.5865626,-1.4741717 6.7399856,-0.7813647 1.657745,0.5333364 3.412313,2.09377182 3.869979,3.5158593 0.366232,1.1379817 0.570104,3.5413572 0.570104,3.5413572 z"
       id="path18"
       sodipodi:nodetypes="cscssccaaacacccasacasc"
       inkscape:label="cloud" />
    <path
       id="insert-2"
       style="display:inline;fill:#91c54e;fill-opacity:1;stroke-width:4.20907"
       d="m 9.9313273,-24.089846 0.00433,5.966613 C 24.362329,-16.544155 32.352942,-5.2928686 33.176037,4.7959675 l 5.97684,0.00653 C 37.880079,-10.290312 26.06735,-22.547171 9.9313273,-24.089846 Z"
       sodipodi:nodetypes="ccccc"
       inkscape:label="insert" />
    <path
       id="ring-7"
       style="display:inline;fill:#91c54e;stroke-width:4.20907"
       d="m 4.999512,-24.089846 c -17.294928,1.758111 -29.19765,15.3331645 -29.19765,31.6034537 -1e-6,17.4287923 14.2208278,31.6056313 31.6722483,31.6056313 16.5570917,0 30.3220767,-12.780738 31.6781447,-28.972917 l -5.954491,0.06966 c -1.324956,13.001696 -12.309284,23.05857 -25.7236537,23.05857 -14.3135129,0 -25.8344573,-11.508451 -25.8344563,-25.7609629 0,-13.2926008 10.0821099,-24.3675251 23.3707214,-25.6368401 z"
       sodipodi:nodetypes="cssccsscc"
       inkscape:label="ring" />
  </g>
  <g
     inkscape:groupmode="layer"
     id="startcloud_layer_03"
     inkscape:label="startcloud_layer_03"
     style="display:inline"
     transform="translate(24.198138,24.089846)">
    <path
       style="display:inline;fill:#ffffff;stroke:none;stroke-width:5.96805;stroke-dasharray:none;stroke-opacity:1"
       d="m 6.9902521,4.8415628 5.1683459,5.2090782 8.850666,-4.7845221 c 0,0 3.404117,-0.05937 4.543355,2.5724479 0.412942,0.9539229 -0.509555,3.0683602 -0.509555,3.0683602 0,0 2.408203,1.279152 2.911745,2.426145 0.537905,1.225269 0.3672,2.79192 -0.218368,3.996004 -0.436204,0.896897 -2.256618,1.998004 -2.256618,1.998004 H -10.91697 c 0,0 -2.354773,-2.213951 -2.858756,-3.672363 -0.669517,-1.937431 -0.737564,-4.219936 -0.0088,-6.1367203 0.481145,-1.2655363 1.479572,-2.4510951 2.70951,-3.0597011 1.003264,-0.4964419 3.3609943,-0.2609406 3.3609943,-0.2609406 0,0 -0.7335242,-2.7492626 -0.1455764,-3.9246461 0.5128831,-1.0253352 2.8389515,-1.99800365 2.8389515,-1.99800365 0,0 2.1126019,-0.26497883 2.9117439,0.14270813 0.799139,0.40768697 1.52866409,1.92664492 1.52866409,1.92664492 0,0 0.7831902,-3.5047876 1.89263431,-4.8522902 0.4184573,-0.5082502 1.6742505,-1.0703587 1.6742505,-1.0703587 0,0 3.4225374,-0.5011379 4.8771685,0.2140707 0.9247847,0.4546952 1.9654267,2.3547883 1.9654267,2.3547883 z"
       id="cloud"
       sodipodi:nodetypes="cccscssccssscsczcscscc"
       inkscape:label="cloud" />
    <path
       id="insert"
       style="display:inline;fill:#91c54e;stroke-width:4.20907"
       d="m 9.9313273,-24.089846 0.00433,5.966613 c 3.3938047,0.323282 6.5768047,1.285908 9.4378137,2.75466 l -8.384084,18.2961633 2.037904,2.0687164 17.272216,-9.631508 c 1.530964,2.8655588 2.530835,6.0527899 2.87653,9.4311688 l 5.97684,0.00653 C 37.880079,-10.290312 25.723228,-22.596444 9.9313273,-24.089846 Z"
       sodipodi:nodetypes="ccccccccc"
       inkscape:label="insert" />
    <path
       id="ring"
       style="display:inline;fill:#91c54e;stroke-width:4.20907"
       d="m 4.999512,-24.089846 c -17.294928,1.758112 -29.19765,15.3331645 -29.19765,31.6034537 -1e-6,17.4287923 14.2208278,31.6056313 31.6722483,31.6056313 16.5570917,0 30.3220767,-12.780738 31.6781447,-28.972917 l -5.954491,0.06967 C 31.872808,23.217678 20.88848,33.274556 7.4741103,33.274556 c -14.3135129,0 -25.8344573,-11.508455 -25.8344563,-25.7609656 0,-13.2926008 10.0821099,-24.3675254 23.3707214,-25.6368404 z"
       sodipodi:nodetypes="cssccsscc"
       inkscape:label="ring" />
  </g>
  <g
     inkscape:groupmode="layer"
     id="startcloud_layer_04"
     inkscape:label="startcloud_layer_04"
     style="display:none"
     transform="translate(24.198138,24.089846)">
    <path
       id="path3"
       style="display:inline;fill:#91c54e;stroke-width:4.20907"
       d="m 28.021834,-16.589224 c -13.469686,-11.014278 -31.463196,-9.851094 -42.941663,1.653738 -12.295775,12.3240163 -12.241697,32.427297 0.09832,44.795657 11.7076322,11.734527 30.457582,12.452851 42.839827,1.964338 l -4.259606,-4.17087 c -10.109402,8.254545 -24.9714846,7.580897 -34.456877,-1.926281 -10.121182,-10.14443 -10.148662,-26.44738611 -0.09371,-36.525433 9.3777478,-9.399288 24.320084,-10.084938 34.612036,-1.564429 z"
       sodipodi:nodetypes="cssccsscc"
       inkscape:label="ring" />
    <path
       id="path2"
       style="display:inline;fill:#91c54e;stroke-width:4.20907"
       d="m 31.509153,-13.093894 -4.206305,4.2221021 c 2.171713,2.6338888 3.743316,5.5704591 4.730171,8.63670851 L 13.196881,6.760198 13.178446,9.6673269 32.186643,15.098176 c -0.939057,3.1113 -2.480587,6.07365 -4.619545,8.707531 l 4.221654,4.240588 c 9.74777,-11.574299 9.833386,-28.89198557 -0.279582,-41.140189 z"
       sodipodi:nodetypes="ccccccccc"
       inkscape:label="insert" />
    <path
       style="display:inline;fill:#ffffff;stroke:none;stroke-width:5.96805;stroke-dasharray:none;stroke-opacity:1"
       d="m 27.736533,17.329078 c -0.436249,0.896908 -2.256685,1.998002 -2.256685,1.998002 h -36.396792 c 0,0 -2.353841,-2.204508 -2.858755,-3.672362 -0.665213,-1.933866 -0.732048,-4.223887 -0.0088,-6.1367201 0.482139,-1.2752008 1.491029,-2.4529529 2.709509,-3.059701 1.006337,-0.5011101 3.3609939,-0.2609419 3.3609939,-0.2609419 0,0 -0.7262924,-2.7520282 -0.1455931,-3.9246461 0.5140913,-1.0381172 2.8389527,-1.99800365 2.8389527,-1.99800365 0,0 2.1126015,-0.26497883 2.911741,0.14270813 0.7991394,0.40768697 1.52866489,1.92664492 1.52866489,1.92664492 0,0 0.79261445,-3.5105358 1.89263521,-4.8522902 0.4202567,-0.5126031 1.0348969,-0.8985076 1.6742496,-1.0703587 1.5717459,-0.4224676 3.4182882,-0.5084937 4.8771698,0.2140707 0.9153697,0.4533703 1.9654267,2.3547883 1.9654267,2.3547883 0,0 4.5865623,-1.4741713 6.7399853,-0.7813648 1.344267,0.4324829 2.497744,1.66580759 3.336294,2.77332571 0,0 -6.722052,3.23125169 -8.621306,3.87556969 l 0.04733,6.869216 c 0,0 16.644834,5.108921 16.405007,5.602063 z"
       id="path4"
       sodipodi:nodetypes="sccaaacacccasacssccs"
       inkscape:label="cloud" />
  </g>
  <g
     inkscape:groupmode="layer"
     id="startcloud_layer_05"
     inkscape:label="startcloud_layer_05"
     style="display:none"
     transform="translate(24.198138,24.089846)">
    <path
       id="path5"
       style="display:inline;fill:#91c54e;stroke-width:4.20907"
       d="M 38.992073,5.0102206 C 37.237993,-12.324433 23.694047,-24.254496 7.4610447,-24.254495 c -17.3888512,-1e-6 -31.5332017,14.253492 -31.5332007,31.7449953 -2e-6,16.5951237 12.751447,30.3917257 28.9065188,31.7509087 L 4.7648573,33.273245 C -8.2070372,31.945241 -18.240867,20.935683 -18.240868,7.490502 c 0,-14.34639 11.4820815,-25.893797 25.70193,-25.893797 13.262136,0 24.311681,10.1052685 25.578089,23.4244031 z"
       sodipodi:nodetypes="cssccsscc"
       inkscape:label="ring" />
    <path
       id="path6"
       style="display:inline;fill:#91c54e;stroke-width:4.20907"
       d="m 38.992073,9.9533635 -5.952939,0.00434 c -0.32255,3.4016015 -1.28296,6.5919135 -2.748347,9.4594905 L 12.036552,11.013853 9.9725769,13.056438 19.58201,30.368326 c -2.858991,1.534481 -6.038915,2.536649 -9.409554,2.883138 l -0.0065,5.990568 C 25.224162,37.96631 37.502096,25.781536 38.992086,9.9533753 Z"
       sodipodi:nodetypes="ccccccccc"
       inkscape:label="insert" />
    <path
       style="display:inline;fill:#ffffff;stroke:none;stroke-width:5.96805;stroke-dasharray:none;stroke-opacity:1"
       d="m 21.009289,5.2661201 c 0,0 3.404118,-0.05937 4.543356,2.572448 0.412941,0.9539229 -0.509555,3.0683599 -0.509555,3.0683599 0,0 2.408189,1.279158 2.911745,2.426145 0.154043,0.350892 0.249984,0.729779 0.294675,1.120131 0.093,0.811719 -17.227599,-7.1266225 -17.227599,-7.1266225 L 5.6190232,12.083893 9.0161186,19.337286 -10.916944,19.32708 c 0,0 -2.353841,-2.20451 -2.858755,-3.672362 -0.665213,-1.933866 -0.732048,-4.223887 -0.0088,-6.1367201 0.482139,-1.2752008 1.491029,-2.4529529 2.709509,-3.059701 1.006337,-0.5011101 3.3609939,-0.2609419 3.3609939,-0.2609419 0,0 -0.7262924,-2.7520282 -0.1455931,-3.9246461 0.5140913,-1.0381172 2.8389527,-1.99800365 2.8389527,-1.99800365 0,0 2.1126015,-0.26497883 2.911741,0.14270813 0.7991394,0.40768697 1.52866489,1.92664492 1.52866489,1.92664492 0,0 0.79261445,-3.5105358 1.89263521,-4.8522902 0.4202567,-0.5126031 1.0348969,-0.8985076 1.6742496,-1.0703587 1.5717459,-0.4224676 3.4182882,-0.5084937 4.8771698,0.2140707 0.9153697,0.4533703 1.9654267,2.3547883 1.9654267,2.3547883 0,0 4.5865623,-1.4741718 6.7399853,-0.7813648 1.657748,0.5333364 3.412316,2.09377187 3.869982,3.5158593 0.366232,1.1379817 0.5701,3.5413572 0.5701,3.5413572 z"
       id="cloud-8-5"
       sodipodi:nodetypes="cscssccccaaacacccasacasc"
       inkscape:label="cloud" />
  </g>
  <g
     inkscape:groupmode="layer"
     id="startcloud_layer_06"
     inkscape:label="startcloud_layer_06"
     style="display:none"
     transform="translate(24.198138,24.089846)">
    <path
       id="path7"
       style="display:inline;fill:#91c54e;stroke-width:4.20907"
       d="m 31.50864,28.085417 c 10.989041,-13.500623 9.828521,-31.5354645 -1.649945,-43.040296 -12.295775,-12.324017 -32.3529852,-12.269815 -44.693001,0.09855 -11.707635,11.7345235 -12.424312,30.527541 -1.959836,42.938228 l 4.16131,-4.269391 c -8.235626,-10.132623 -7.563523,-25.0288417 1.921868,-34.536021 10.12118219,-10.14443 26.386777,-10.171973 36.44173,-0.09393 9.377745,9.399287 10.061823,24.375945 1.560844,34.691538 z"
       sodipodi:nodetypes="cssccsscc"
       inkscape:label="ring" />
    <path
       id="path8"
       style="display:inline;fill:#91c54e;stroke-width:4.20907"
       d="m 28.021321,31.580747 -4.212427,-4.215962 c -2.627857,2.176693 -5.557693,3.75191 -8.616915,4.741031 L 8.2127295,13.226413 5.3122627,13.207936 -0.10614267,32.259793 C -3.2103104,31.318579 -6.1658718,29.773508 -8.7937162,27.629637 l -4.2308718,4.231352 c 11.5477757,9.770155 28.825777,9.855971 41.045909,-0.280225 z"
       sodipodi:nodetypes="ccccccccc"
       inkscape:label="insert" />
    <path
       style="display:inline;fill:#ffffff;stroke:none;stroke-width:5.96805;stroke-dasharray:none;stroke-opacity:1"
       d="m 21.009289,5.2661201 c 0,0 3.404118,-0.05937 4.543356,2.572448 0.412941,0.9539229 -0.509555,3.0683599 -0.509555,3.0683599 0,0 2.408202,1.279152 2.911745,2.426145 0.537904,1.225269 0.367199,2.79192 -0.218369,3.996005 -0.436203,0.896895 -2.256618,1.998002 -2.256618,1.998002 H 12.981256 L 9.3866412,10.347785 3.8197859,10.337963 0.48266324,19.32708 H -10.916944 c 0,0 -2.353841,-2.204508 -2.858755,-3.672362 -0.665213,-1.933866 -0.732048,-4.223887 -0.0088,-6.1367201 0.482139,-1.2752008 1.491029,-2.4529529 2.709509,-3.059701 1.006337,-0.5011101 3.3609939,-0.2609419 3.3609939,-0.2609419 0,0 -0.7262924,-2.7520282 -0.1455931,-3.9246461 0.5140913,-1.0381172 2.8389527,-1.99800365 2.8389527,-1.99800365 0,0 2.1126015,-0.26497883 2.911741,0.14270813 0.7991394,0.40768697 1.52866489,1.92664492 1.52866489,1.92664492 0,0 0.79261445,-3.5105358 1.89263521,-4.8522902 0.4202567,-0.5126031 1.0348969,-0.8985076 1.6742496,-1.0703587 1.5717459,-0.4224676 3.4182882,-0.5084937 4.8771698,0.2140707 0.9153697,0.4533703 1.9654267,2.3547883 1.9654267,2.3547883 0,0 4.5865623,-1.4741718 6.7399853,-0.7813648 1.657748,0.5333364 3.412316,2.09377187 3.869982,3.5158593 0.366232,1.1379817 0.5701,3.5413572 0.5701,3.5413572 z"
       id="cloud-8-1"
       sodipodi:nodetypes="cscssccccccaaacacccasacasc"
       inkscape:label="cloud" />
  </g>
  <g
     inkscape:groupmode="layer"
     id="startcloud_layer_07"
     inkscape:label="startcloud_layer_07"
     style="display:none"
     transform="translate(24.198138,24.089846)">
    <path
       id="path9"
       style="display:inline;fill:#91c54e;stroke-width:4.20907"
       d="M 9.9586945,39.080855 C 27.253625,37.322746 39.156346,23.74769 39.15635,7.4774018 39.15635,-9.9513908 24.93552,-24.12823 7.4841,-24.128229 c -16.5570931,-2e-6 -30.322078,12.780736 -31.678145,28.9729151 l 5.954487,-0.069666 C -16.914599,-8.226669 -5.9302707,-18.283546 7.4840987,-18.283547 c 14.3135123,0 25.8344583,11.5084552 25.8344583,25.7609665 0,13.2925985 -10.082113,24.3675225 -23.3707225,25.6368395 z"
       sodipodi:nodetypes="cssccsscc"
       inkscape:label="ring" />
    <path
       id="path10"
       style="display:inline;fill:#91c54e;stroke-width:4.20907"
       d="M 5.02688,39.080855 5.02255,33.114242 C 1.6287453,32.790951 -1.5542555,31.828335 -4.4152637,30.359582 L 3.9688223,12.063419 1.9309181,9.9947023 -15.341298,19.626208 c -1.530964,-2.865559 -2.530835,-6.052786 -2.87653,-9.431167 l -5.976839,-0.0065 c 1.272799,15.092811 13.429649,27.398946 29.2215352,28.892358 z"
       sodipodi:nodetypes="ccccccccc"
       inkscape:label="insert" />
    <path
       style="display:inline;fill:#ffffff;stroke:none;stroke-width:5.96805;stroke-dasharray:none;stroke-opacity:1"
       d="m 21.009289,5.2661201 c 0,0 3.404118,-0.05937 4.543356,2.572448 0.412941,0.9539229 -0.509555,3.0683599 -0.509555,3.0683599 0,0 2.408202,1.279152 2.911745,2.426145 0.537904,1.225269 0.367199,2.791921 -0.218369,3.996006 -0.436203,0.896894 -2.256618,1.998001 -2.256618,1.998001 H 4.4454963 L 7.0495534,11.694219 2.4747424,7.2918922 c -4.1783668,1.0992976 -16.2504404,8.3628258 -16.2504404,8.3628258 -0.665213,-1.933866 -0.732048,-4.223887 -0.0088,-6.1367201 0.482139,-1.2752008 1.491028,-2.4529529 2.709508,-3.059701 1.006337,-0.5011101 3.3609943,-0.2609419 3.3609943,-0.2609419 0,0 -0.7262924,-2.7520282 -0.1455931,-3.9246461 0.5140913,-1.0381172 2.8389528,-1.99800365 2.8389528,-1.99800365 0,0 2.1126014,-0.26497883 2.9117409,0.14270813 0.7991394,0.40768697 1.52866491,1.92664492 1.52866491,1.92664492 0,0 0.79261445,-3.5105358 1.89263519,-4.8522902 0.4202567,-0.5126031 1.0348969,-0.8985076 1.6742497,-1.0703587 1.5717458,-0.4224676 3.4182881,-0.5084937 4.8771697,0.2140707 0.9153697,0.4533703 1.9654267,2.3547883 1.9654267,2.3547883 0,0 4.5865619,-1.4741718 6.7399859,-0.7813648 1.657747,0.5333364 3.412315,2.09377187 3.869981,3.5158593 0.366232,1.1379817 0.5701,3.5413572 0.5701,3.5413572 z"
       id="cloud-8-2"
       sodipodi:nodetypes="cscssccccsaacacccasacasc"
       inkscape:label="cloud" />
  </g>
  <g
     inkscape:groupmode="layer"
     id="startcloud_layer_08"
     inkscape:label="startcloud_layer_08"
     style="display:none"
     transform="translate(24.198138,24.089846)">
    <path
       id="path11"
       style="display:inline;fill:#91c54e;stroke-width:4.20907"
       d="M -13.06362,31.580233 C 0.40606477,42.594515 18.399577,41.431325 29.878043,29.926498 42.173819,17.602481 42.11974,-2.5008011 29.779723,-14.869162 18.072092,-26.603688 -0.67785915,-27.322012 -13.060105,-16.833499 l 4.2596065,4.170868 c 10.1094022,-8.254543 24.9714845,-7.580895 34.4568745,1.926283 10.121183,10.14442895 10.148666,26.447386 0.09371,36.525435 -9.377747,9.399286 -24.3200844,10.084935 -34.6120359,1.564425 z"
       sodipodi:nodetypes="cssccsscc"
       inkscape:label="ring" />
    <path
       id="path12"
       style="display:inline;fill:#91c54e;stroke-width:4.20907"
       d="m -16.550939,28.084903 4.206301,-4.222102 c -2.171704,-2.633897 -3.743313,-5.570459 -4.730166,-8.636709 L 1.7613326,8.2308119 1.7797682,5.3236825 -17.228428,-0.10716859 c 0.939056,-3.11129781 2.480586,-6.07364791 4.619545,-8.70752821 l -4.221655,-4.2405902 c -9.747767,11.5743021 -9.833386,28.891989 0.279582,41.14019 z"
       sodipodi:nodetypes="ccccccccc"
       inkscape:label="insert" />
    <path
       style="display:inline;fill:#ffffff;stroke:none;stroke-width:5.96805;stroke-dasharray:none;stroke-opacity:1"
       d="m 21.009289,5.2661201 c 0,0 3.404118,-0.059374 4.543356,2.5724463 0.412941,0.9539229 -0.509555,3.0683596 -0.509555,3.0683596 0,0 2.408202,1.279152 2.911745,2.426144 0.537904,1.225269 0.367199,2.791919 -0.218369,3.996005 -0.436203,0.896894 -2.256618,1.998 -2.256618,1.998 H -10.916945 L -12.912201,17.126244 4.9202111,10.040691 4.8729389,3.6523783 -0.40819904,1.6049725 c 0,0 0.7650022,-2.976114 1.72057334,-4.1131897 0.4264416,-0.5074415 1.0348969,-0.8985075 1.6742497,-1.0703586 1.5717458,-0.4224677 3.4182882,-0.5084937 4.8771697,0.2140706 0.9153697,0.4533704 1.9654267,2.3547883 1.9654267,2.3547883 0,0 4.5865626,-1.4741717 6.7399856,-0.7813647 1.657745,0.5333364 3.412313,2.09377182 3.869983,3.5158593 0.366232,1.1379817 0.5701,3.5413551 0.5701,3.5413593 z"
       id="cloud-8-16"
       sodipodi:nodetypes="cscssccccccasacascc"
       inkscape:label="cloud" />
  </g>
  <g
     inkscape:groupmode="layer"
     id="startcloud_layer_09"
     inkscape:label="startcloud_layer_09"
     style="display:none"
     transform="translate(24.198138,24.089846)">
    <path
       id="path13"
       style="display:inline;fill:#91c54e;stroke-width:4.20907"
       d="M -24.033859,9.980788 C -22.27978,27.315444 -8.7358304,39.245505 7.4971685,39.245505 24.886023,39.245509 39.030374,24.992014 39.030369,7.5005087 39.030374,-9.0946144 26.278924,-22.891217 10.123852,-24.250399 l 0.0695,5.968164 c 12.971897,1.328003 23.005724,12.3375607 23.005724,25.7827408 0,14.3463922 -11.482077,25.8938012 -25.7019309,25.8938012 -13.2621357,0 -24.3116801,-10.105271 -25.5780861,-23.4244064 z"
       sodipodi:nodetypes="cssccsscc"
       inkscape:label="ring" />
    <path
       id="path14"
       style="display:inline;fill:#91c54e;stroke-width:4.20907"
       d="m -24.033859,5.0376455 5.952938,-0.00434 c 0.322552,-3.4016004 1.282961,-6.5919111 2.748349,-9.4594909 L 2.921662,3.9771567 4.985638,1.9345716 -4.6237953,-15.377317 c 2.8589911,-1.534482 6.0389151,-2.53665 9.4095536,-2.883138 l 0.00652,-5.990568 C -10.265948,-22.9753 -22.543881,-10.790526 -24.033871,5.0376333 Z"
       sodipodi:nodetypes="ccccccccc"
       inkscape:label="insert" />
    <path
       style="display:inline;fill:#ffffff;stroke:none;stroke-width:5.96805;stroke-dasharray:none;stroke-opacity:1"
       d="m 21.009289,5.2661349 c 0,0 3.404118,-0.05937 4.543356,2.5724479 0.412941,0.953923 -0.509555,3.0683602 -0.509555,3.0683602 0,0 2.408202,1.279152 2.911745,2.426145 0.537904,1.225269 0.367199,2.791919 -0.218369,3.996005 -0.436203,0.896897 -2.256618,1.998003 -2.256618,1.998003 h -36.396793 c 0,0 -2.353841,-2.20451 -2.858755,-3.672363 -0.665213,-1.933866 -0.732048,-4.223888 -0.0088,-6.1367203 0.482139,-1.2752008 1.491029,-2.452953 2.709508,-3.0597011 1.006338,-0.5011101 3.3609946,-0.2609419 3.3609946,-0.2609419 0,0 -0.7262915,-2.7520277 -0.1455931,-3.924646 0.071544,-0.1444696 0.1467619,-0.325912 0.3086844,-0.4264823 L 3.5336922,6.6586631 7.7900999,2.5940015 4.3231379,-3.8399037 c 0,0 2.4804245,-0.04972 3.5406558,0.4753985 0.9153693,0.4533716 1.9654267,2.3547883 1.9654267,2.3547883 0,0 4.5865626,-1.4741717 6.7399856,-0.7813647 1.657745,0.5333364 3.412313,2.09377182 3.869983,3.5158593 0.366232,1.1379817 0.5701,3.5413572 0.5701,3.5413572 z"
       id="cloud-8-6"
       sodipodi:nodetypes="cscssccaaacssccsscasc"
       inkscape:label="cloud" />
  </g>
  <g
     inkscape:groupmode="layer"
     id="startcloud_layer_10"
     inkscape:label="startcloud_layer_10"
     style="display:none"
     transform="translate(24.198138,24.089846)">
    <path
       id="path15"
       style="display:inline;fill:#91c54e;stroke-width:4.20907"
       d="m -16.550427,-13.094407 c -10.989041,13.50062319 -9.828518,31.535466 1.649946,43.040293 12.2957742,12.324023 32.352986,12.26982 44.693001,-0.09856 11.707636,-11.734518 12.424313,-30.52753728 1.959836,-42.938225 l -4.161311,4.2694064 C 35.826673,1.3111293 35.154569,16.207346 25.669178,25.714522 15.547994,35.858957 -0.71759939,35.886503 -10.772554,25.80845 -20.150301,16.409166 -20.834378,1.4325066 -12.333394,-8.8830856 Z"
       sodipodi:nodetypes="cssccsscc"
       inkscape:label="ring" />
    <path
       id="path16"
       style="display:inline;fill:#91c54e;stroke-width:4.20907"
       d="m -13.063108,-16.589737 4.2124264,4.215962 c 2.6278616,-2.176692 5.5576938,-3.751911 8.61691727,-4.741031 L 6.7454845,1.7645966 9.6459517,1.7830956 15.064357,-17.268761 c 3.104167,0.941213 6.059729,2.486284 8.687574,4.630155 l 4.23087,-4.231352 c -11.547776,-9.770157 -28.82577656,-9.855972 -41.045909,0.280221 z"
       sodipodi:nodetypes="ccccccccc"
       inkscape:label="insert" />
    <path
       style="display:inline;fill:#ffffff;stroke:none;stroke-width:5.96805;stroke-dasharray:none;stroke-opacity:1"
       d="m 21.009289,5.2661349 c 0,0 3.404118,-0.05937 4.543356,2.5724479 0.412941,0.953923 -0.509555,3.0683602 -0.509555,3.0683602 0,0 2.408202,1.279152 2.911745,2.426145 0.537904,1.225269 0.367199,2.791919 -0.218369,3.996005 -0.436203,0.896897 -2.256618,1.998003 -2.256618,1.998003 h -36.396793 c 0,0 -2.353841,-2.20451 -2.858755,-3.672363 -0.665213,-1.933866 -0.732048,-4.223888 -0.0088,-6.1367203 0.482139,-1.2752008 1.491029,-2.452953 2.709508,-3.0597011 1.006338,-0.5011101 3.3609946,-0.2609419 3.3609946,-0.2609419 0,0 -0.7262924,-2.7520281 -0.1455931,-3.924646 0.5140914,-1.0381172 2.8389528,-1.9980037 2.8389528,-1.9980037 0,0 2.1126015,-0.26497883 2.9117409,0.14270813 0.7991394,0.40768696 1.52866493,1.92664497 1.52866493,1.92664497 0,0 0.4727947,-2.87936821 1.89263517,-4.8522903 0,0 0.4104482,-0.4029969 0.5021244,-0.2273444 l 3.7776295,7.237819 5.6514468,-0.032279 2.834549,-6.3444179 c 0.02106,-0.047183 1.770293,-0.2625053 2.491082,0.083376 1.387807,0.6659552 3.412313,2.09377188 3.869983,3.5158593 0.366232,1.1379817 0.5701,3.5413572 0.5701,3.5413556 z"
       id="cloud-8-27"
       sodipodi:nodetypes="cscssccaaacacccsscccsscc"
       inkscape:label="cloud" />
  </g>
  <g
     inkscape:groupmode="layer"
     id="startcloud_layer_11"
     inkscape:label="startcloud_layer_11"
     style="display:none"
     transform="translate(24.198138,24.089846)">
    <path
       style="display:inline;fill:#ffffff;stroke:none;stroke-width:5.96805;stroke-dasharray:none;stroke-opacity:1"
       d="m 6.9902521,4.8415628 5.1683459,5.2090782 8.850666,-4.7845221 c 0,0 3.404117,-0.05937 4.543355,2.5724479 0.412942,0.9539229 -0.509555,3.0683602 -0.509555,3.0683602 0,0 2.408203,1.279152 2.911745,2.426145 0.537905,1.225269 0.3672,2.79192 -0.218368,3.996004 -0.436204,0.896897 -2.256618,1.998004 -2.256618,1.998004 H -10.91697 c 0,0 -2.354773,-2.213951 -2.858756,-3.672363 -0.669517,-1.937431 -0.737564,-4.219936 -0.0088,-6.1367203 0.481145,-1.2655363 1.479572,-2.4510951 2.70951,-3.0597011 1.003264,-0.4964419 3.3609943,-0.2609406 3.3609943,-0.2609406 0,0 -0.7335242,-2.7492626 -0.1455764,-3.9246461 0.5128831,-1.0253352 2.8389515,-1.99800365 2.8389515,-1.99800365 0,0 2.1126019,-0.26497883 2.9117439,0.14270813 0.799139,0.40768697 1.52866409,1.92664492 1.52866409,1.92664492 0,0 0.7831902,-3.5047876 1.89263431,-4.8522902 0.4184573,-0.5082502 1.6742505,-1.0703587 1.6742505,-1.0703587 0,0 3.4225374,-0.5011379 4.8771685,0.2140707 0.9247847,0.4546952 1.9654267,2.3547883 1.9654267,2.3547883 z"
       id="path19"
       sodipodi:nodetypes="cccscssccssscsczcscscc"
       inkscape:label="cloud" />
    <path
       id="path20"
       style="display:inline;fill:#91c54e;stroke-width:4.20907"
       d="m 9.9313273,-24.089846 0.00433,5.966613 c 3.3938047,0.323282 6.5768047,1.285908 9.4378137,2.75466 l -8.384084,18.2961633 2.037904,2.0687164 17.272216,-9.631508 c 1.530964,2.8655588 2.530835,6.0527899 2.87653,9.4311688 l 5.97684,0.00653 C 37.880079,-10.290312 25.723228,-22.596444 9.9313273,-24.089846 Z"
       sodipodi:nodetypes="ccccccccc"
       inkscape:label="insert" />
    <path
       id="path21"
       style="display:inline;fill:#91c54e;stroke-width:4.20907"
       d="m 4.999512,-24.089846 c -17.294928,1.758112 -29.19765,15.3331645 -29.19765,31.6034537 -1e-6,17.4287923 14.2208278,31.6056313 31.6722483,31.6056313 16.5570917,0 30.3220767,-12.780738 31.6781447,-28.972917 l -5.954491,0.06967 C 31.872808,23.217678 20.88848,33.274556 7.4741103,33.274556 c -14.3135129,0 -25.8344573,-11.508455 -25.8344563,-25.7609656 0,-13.2926008 10.0821099,-24.3675254 23.3707214,-25.6368404 z"
       sodipodi:nodetypes="cssccsscc"
       inkscape:label="ring" />
  </g>
  <g
     inkscape:groupmode="layer"
     id="startcloud_layer_12"
     inkscape:label="startcloud_layer_12"
     style="display:none"
     transform="translate(24.198138,24.089846)">
    <path
       style="display:inline;fill:#ffffff;stroke:none;stroke-width:5.96805;stroke-dasharray:none;stroke-opacity:1"
       d="m 21.009289,5.2661349 c 0,0 3.404118,-0.05937 4.543356,2.5724479 0.412941,0.953923 -0.509555,3.0683602 -0.509555,3.0683602 0,0 2.408202,1.279152 2.911745,2.426145 0.537904,1.225269 0.367199,2.791919 -0.218369,3.996005 -0.436203,0.896897 -2.256618,1.998003 -2.256618,1.998003 h -36.396793 c 0,0 -2.353841,-2.20451 -2.858755,-3.672363 -0.665213,-1.933866 -0.732048,-4.223888 -0.0088,-6.1367203 0.482139,-1.2752008 1.491029,-2.452953 2.709508,-3.0597011 1.006338,-0.5011101 3.3609946,-0.2609419 3.3609946,-0.2609419 0,0 -0.7262924,-2.7520281 -0.1455931,-3.924646 0.5140914,-1.0381172 2.8389528,-1.9980037 2.8389528,-1.9980037 0,0 2.1126015,-0.26497883 2.9117409,0.14270813 0.7991394,0.40768696 1.52866493,1.92664497 1.52866493,1.92664497 0,0 0.79261445,-3.5105359 1.89263517,-4.8522903 0.4202567,-0.5126031 1.0348969,-0.8985075 1.6742497,-1.0703586 1.5717458,-0.4224677 3.4182882,-0.5084937 4.8771697,0.2140706 0.9153697,0.4533704 1.9654267,2.3547883 1.9654267,2.3547883 0,0 4.5865626,-1.4741717 6.7399856,-0.7813647 1.657745,0.5333364 3.412313,2.09377182 3.869979,3.5158593 0.366232,1.1379817 0.570104,3.5413572 0.570104,3.5413572 z"
       id="path22"
       sodipodi:nodetypes="cscssccaaacacccasacasc"
       inkscape:label="cloud" />
    <path
       id="path23"
       style="display:inline;fill:#91c54e;fill-opacity:1;stroke-width:4.20907"
       d="m 9.9313273,-24.089846 0.00433,5.966613 C 24.362329,-16.544155 32.352942,-5.2928686 33.176037,4.7959675 l 5.97684,0.00653 C 37.880079,-10.290312 26.06735,-22.547171 9.9313273,-24.089846 Z"
       sodipodi:nodetypes="ccccc"
       inkscape:label="insert" />
    <path
       id="path24"
       style="display:inline;fill:#91c54e;stroke-width:4.20907"
       d="m 4.999512,-24.089846 c -17.294928,1.758111 -29.19765,15.3331645 -29.19765,31.6034537 -1e-6,17.4287923 14.2208278,31.6056313 31.6722483,31.6056313 16.5570917,0 30.3220767,-12.780738 31.6781447,-28.972917 l -5.954491,0.06966 c -1.324956,13.001696 -12.309284,23.05857 -25.7236537,23.05857 -14.3135129,0 -25.8344573,-11.508451 -25.8344563,-25.7609629 0,-13.2926008 10.0821099,-24.3675251 23.3707214,-25.6368401 z"
       sodipodi:nodetypes="cssccsscc"
       inkscape:label="ring" />
  </g>
  <g
     inkscape:groupmode="layer"
     id="startcloud_layer_13"
     inkscape:label="startcloud_layer_13"
     style="display:none"
     transform="translate(24.198138,24.089846)">
    <path
       id="path25"
       style="display:inline;fill:#91c54e;fill-opacity:1;stroke:none;stroke-width:4.20907"
       inkscape:label="ring"
       d="m 4.999512,-24.089846 c -17.294928,1.758111 -29.19765,15.3331645 -29.19765,31.6034537 0,4.1303093 0.806311,8.0740443 2.257337,11.6936913 0.05946,0.15701 0.124795,0.311956 0.186845,0.468182 0.02304,0.05495 0.04399,0.110699 0.06735,0.16548 1.209494,2.994975 2.888501,5.837891 5.053482,8.405524 l 0.12601,-0.128482 c 5.814686,6.728647 14.4081507,11.001215 23.9812235,11.001215 9.5723245,0 18.2054675,-4.27663 24.0529225,-11.009925 l 0.14122,0.141545 c 10.989033,-13.5006 9.829455,-31.5353401 -1.649011,-43.040171 -6.82926,-6.844948 -16.053953,-10.081608 -25.019731,-9.300513 z m 2.6962042,5.901286 c 6.5884158,-0.01517 13.1680978,2.497636 18.1955718,7.53666 5.661484,5.6744836 8.148957,13.3806702 7.365138,20.867904 h -0.05865 C 31.872821,23.217695 20.888493,33.274573 7.4741229,33.274573 c -9.3762787,0 -17.5518809,-4.94035 -22.0780209,-12.353504 -5.889998,-9.900352 -4.518824,-22.8889257 4.051897,-31.479332 5.0605917,-5.072215 11.6593013,-7.615113 18.2477172,-7.630297 z"
       sodipodi:nodetypes="cscccccsccscccsccscsc" />
    <path
       style="display:inline;fill:#ffffff;stroke:none;stroke-width:5.96805;stroke-dasharray:none;stroke-opacity:1"
       d="m 21.009289,5.2661349 c 0,0 3.404118,-0.05937 4.543356,2.5724479 0.412941,0.953923 -0.509555,3.0683602 -0.509555,3.0683602 0,0 2.408202,1.279152 2.911745,2.426145 0.537904,1.225269 0.367199,2.791919 -0.218369,3.996005 -0.436203,0.896897 -2.256618,1.998003 -2.256618,1.998003 h -36.396793 c 0,0 -2.353841,-2.20451 -2.858755,-3.672363 -0.665213,-1.933866 -0.732048,-4.223888 -0.0088,-6.1367203 0.482139,-1.2752008 1.491029,-2.452953 2.709508,-3.0597011 1.006338,-0.5011101 3.3609946,-0.2609419 3.3609946,-0.2609419 0,0 -0.7262924,-2.7520281 -0.1455931,-3.924646 0.5140914,-1.0381172 2.8389528,-1.9980037 2.8389528,-1.9980037 0,0 2.1126015,-0.26497883 2.9117409,0.14270813 0.7991394,0.40768696 1.52866493,1.92664497 1.52866493,1.92664497 0,0 0.79261445,-3.5105359 1.89263517,-4.8522903 0.4202567,-0.5126031 1.0348969,-0.8985075 1.6742497,-1.0703586 1.5717458,-0.4224677 3.4182882,-0.5084937 4.8771697,0.2140706 0.9153697,0.4533704 1.9654267,2.3547883 1.9654267,2.3547883 0,0 4.5865626,-1.4741717 6.7399856,-0.7813647 1.657745,0.5333364 3.412313,2.09377182 3.869979,3.5158593 0.366232,1.1379817 0.570104,3.5413572 0.570104,3.5413572 z"
       id="path26"
       sodipodi:nodetypes="cscssccaaacacccasacasc"
       inkscape:label="cloud" />
  </g>
</svg>
